<svg width="30" height="22" viewBox="0 0 30 22" fill="none" xmlns="http://www.w3.org/2000/svg">
<g id="Group 626571">
<path id="Vector" d="M28.5347 15.2524C28.2703 15.5923 27.9042 15.8376 27.4904 15.9521C27.0767 16.0667 26.6374 16.0444 26.2372 15.8885L20.1124 13.7025L20.0761 13.6887C19.7698 13.5654 19.4986 13.3679 19.2866 13.1137C19.0747 12.8595 18.9285 12.5565 18.8612 12.2318L18.0849 8.49205C16.0711 7.80197 13.8859 7.80684 11.8751 8.50588L11.1376 12.2167C11.0725 12.545 10.927 12.8519 10.7142 13.1094C10.5014 13.3669 10.228 13.5669 9.91887 13.6912L9.88262 13.705L3.75776 15.8885C3.53041 15.9786 3.2884 16.0255 3.04403 16.0268C2.73984 16.0273 2.43954 15.9581 2.16597 15.8244C1.8924 15.6906 1.65277 15.4959 1.46531 15.255C-0.688385 12.4618 -0.447141 8.75477 2.05155 6.24068C9.07014 -0.820137 20.9261 -0.820137 27.9485 6.24068C30.4471 8.75226 30.6884 12.4593 28.5347 15.2524ZM25.9997 19.0437H4.00026C3.73505 19.0437 3.4807 19.1496 3.29317 19.3382C3.10563 19.5268 3.00028 19.7826 3.00028 20.0493C3.00028 20.316 3.10563 20.5718 3.29317 20.7604C3.4807 20.949 3.73505 21.055 4.00026 21.055H25.9997C26.265 21.055 26.5193 20.949 26.7068 20.7604C26.8944 20.5718 26.9997 20.316 26.9997 20.0493C26.9997 19.7826 26.8944 19.5268 26.7068 19.3382C26.5193 19.1496 26.265 19.0437 25.9997 19.0437Z" fill="#387ADF"/>
</g>
</svg>
