<svg width="32" height="32" viewBox="0 0 32 32" fill="none" xmlns="http://www.w3.org/2000/svg">
<path d="M27.4932 11.2668C26.0932 5.10683 20.7199 2.3335 15.9999 2.3335C15.9999 2.3335 15.9999 2.3335 15.9865 2.3335C11.2799 2.3335 5.89322 5.0935 4.49322 11.2535C2.93322 18.1335 7.14655 23.9602 10.9599 27.6268C12.3732 28.9868 14.1866 29.6668 15.9999 29.6668C17.8132 29.6668 19.6266 28.9868 21.0266 27.6268C24.8399 23.9602 29.0532 18.1468 27.4932 11.2668ZM15.9999 17.9468C13.6799 17.9468 11.7999 16.0668 11.7999 13.7468C11.7999 11.4268 13.6799 9.54683 15.9999 9.54683C18.3199 9.54683 20.1999 11.4268 20.1999 13.7468C20.1999 16.0668 18.3199 17.9468 15.9999 17.9468Z" fill="#387ADF"/>
</svg>
