<svg width="32" height="32" viewBox="0 0 32 32" fill="none" xmlns="http://www.w3.org/2000/svg">
<path d="M16.0001 2.6665C8.64008 2.6665 2.66675 8.19985 2.66675 15.0132C2.66675 18.8799 4.58674 22.3198 7.57341 24.5865V27.0532C7.57341 28.0798 8.66673 28.7198 9.56006 28.2132L12.0401 26.8132C13.2935 27.1732 14.6134 27.3598 15.9867 27.3598C23.3467 27.3598 29.3201 21.8265 29.3201 15.0132C29.3334 8.19985 23.3601 2.6665 16.0001 2.6665ZM20.6801 13.9198L17.3468 17.9065C17.1334 18.1598 16.7868 18.2132 16.5068 18.0532L15.1601 17.2665C15.0134 17.1865 14.8401 17.1598 14.6667 17.1998L11.9867 17.8532C11.3601 17.9999 10.9067 17.2665 11.3201 16.7732L14.7068 12.7465C14.9068 12.5065 15.2534 12.4398 15.5334 12.5865L17.1068 13.4132C17.2534 13.4932 17.4268 13.5065 17.5868 13.4665L20.0134 12.8398C20.6268 12.6798 21.0934 13.4265 20.6801 13.9198Z" fill="#387ADF"/>
</svg>
