<svg width="32" height="32" viewBox="0 0 32 32" fill="none" xmlns="http://www.w3.org/2000/svg">
<g id="a" clip-path="url(#clip0_509_644)">
<path id="Vector" d="M28.49 12.55H19.33V3.39C19.33 1.52 17.81 0 15.94 0C14.07 0 12.55 1.52 12.55 3.39V12.55H3.39C1.52 12.55 0 14.07 0 15.94C0 17.81 1.52 19.33 3.39 19.33H12.55V28.5C12.55 30.37 14.07 31.89 15.94 31.89C17.81 31.89 19.33 30.37 19.33 28.5V19.33H28.49C30.36 19.33 31.88 17.81 31.88 15.94C31.88 14.07 30.36 12.55 28.49 12.55Z" fill="#387ADF"/>
</g>
<defs>
<clipPath id="clip0_509_644">
<rect width="31.88" height="31.88" fill="white"/>
</clipPath>
</defs>
</svg>
