<svg width="30" height="37" viewBox="0 0 30 37" fill="none" xmlns="http://www.w3.org/2000/svg">
<g id="formkit:avatarman">
<path id="Vector" d="M9.23069 22.9167H20.7692C24.5999 22.9167 27.6922 25.9876 27.6922 29.7917V34.3751H2.30762V29.7917C2.30762 25.9876 5.39992 22.9167 9.23069 22.9167ZM9.23069 9.16675H20.7692V14.8959C20.7692 16.4154 20.1613 17.8726 19.0794 18.947C17.9974 20.0215 16.53 20.6251 14.9999 20.6251C13.4698 20.6251 12.0024 20.0215 10.9205 18.947C9.83852 17.8726 9.23069 16.4154 9.23069 14.8959V9.16675ZM20.7692 9.16675C22.0384 9.16675 23.0768 10.198 23.0768 11.4584C23.0768 12.7188 22.0384 13.7501 20.7692 13.7501V9.16675ZM9.23069 13.7501C7.96146 13.7501 6.923 12.7188 6.923 11.4584C6.923 10.198 7.96146 9.16675 9.23069 9.16675V13.7501Z" fill="#387ADF"/>
<path id="Vector_2" d="M9.50757 9.44172H8.35373C6.62296 8.02088 6.92296 5.8438 6.92296 4.01047C6.92296 2.17713 8.0768 3.41463 9.23065 3.41463C10.3845 3.41463 11.5383 4.56047 11.5383 4.56047C9.50757 4.56047 9.23065 2.2688 9.23065 2.2688H16.1537C18.6922 2.2688 20.7691 4.3313 20.7691 6.85213H21.923C21.923 6.85213 22.4999 8.57088 21.646 9.71672L9.53065 9.44172H9.50757Z" fill="#387ADF"/>
</g>
</svg>
