<svg width="20" height="34" viewBox="0 0 20 34" fill="none" xmlns="http://www.w3.org/2000/svg">
<g id="fa:mobile" clip-path="url(#clip0_490_7079)">
<path id="Vector" d="M12.0833 30.6667C12.0833 30.0938 11.8793 29.6034 11.4714 29.1954C11.0634 28.7874 10.5729 28.5834 10 28.5834C9.42708 28.5834 8.93663 28.7874 8.52865 29.1954C8.12066 29.6034 7.91667 30.0938 7.91667 30.6667C7.91667 31.2397 8.12066 31.7301 8.52865 32.1381C8.93663 32.5461 9.42708 32.7501 10 32.7501C10.5729 32.7501 11.0634 32.5461 11.4714 32.1381C11.8793 31.7301 12.0833 31.2397 12.0833 30.6667ZM17.5 26.5001V8.16675C17.5 7.94105 17.4175 7.74574 17.2526 7.58081C17.0877 7.41588 16.8924 7.33341 16.6667 7.33341H3.33333C3.10764 7.33341 2.91233 7.41588 2.7474 7.58081C2.58247 7.74574 2.5 7.94105 2.5 8.16675V26.5001C2.5 26.7258 2.58247 26.9211 2.7474 27.086C2.91233 27.2509 3.10764 27.3334 3.33333 27.3334H16.6667C16.8924 27.3334 17.0877 27.2509 17.2526 27.086C17.4175 26.9211 17.5 26.7258 17.5 26.5001ZM12.5 4.41675C12.5 4.13897 12.3611 4.00008 12.0833 4.00008H7.91667C7.63889 4.00008 7.5 4.13897 7.5 4.41675C7.5 4.69453 7.63889 4.83341 7.91667 4.83341H12.0833C12.3611 4.83341 12.5 4.69453 12.5 4.41675ZM20 4.00008V30.6667C20 31.5695 19.6701 32.3508 19.0104 33.0105C18.3507 33.6702 17.5694 34.0001 16.6667 34.0001H3.33333C2.43056 34.0001 1.64931 33.6702 0.989583 33.0105C0.329861 32.3508 0 31.5695 0 30.6667V4.00008C0 3.0973 0.329861 2.31605 0.989583 1.65633C1.64931 0.996609 2.43056 0.666748 3.33333 0.666748H16.6667C17.5694 0.666748 18.3507 0.996609 19.0104 1.65633C19.6701 2.31605 20 3.0973 20 4.00008Z" fill="#387ADF"/>
</g>
<defs>
<clipPath id="clip0_490_7079">
<rect width="20" height="33.3333" fill="white" transform="translate(0 0.666748)"/>
</clipPath>
</defs>
</svg>
